<svg width="50" height="51" viewBox="0 0 50 51" fill="none" xmlns="http://www.w3.org/2000/svg">
<path d="M43.3844 25.9319C43.3844 24.6573 43.2811 23.3759 43.0606 22.122H25.375V29.3422H35.5027C35.0825 31.6709 33.7321 33.7309 31.7548 35.0399V39.7248H37.797C41.3451 36.4592 43.3844 31.6365 43.3844 25.9319Z" fill="#4285F4"/>
<path d="M25.375 44.2513C30.4319 44.2513 34.6966 42.5909 37.8038 39.7248L31.7616 35.0399C30.0806 36.1836 27.9104 36.8312 25.3819 36.8312C20.4903 36.8312 16.3427 33.5311 14.8546 29.0942H8.61952V33.9238C11.8025 40.2553 18.2856 44.2513 25.375 44.2513Z" fill="#34A853"/>
<path d="M14.8477 29.0942C14.0623 26.7655 14.0623 24.2439 14.8477 21.9153V17.0857H8.61954C5.96016 22.3837 5.96015 28.6257 8.61952 33.9238L14.8477 29.0942Z" fill="#FBBC04"/>
<path d="M25.375 14.1713C28.0481 14.13 30.6317 15.1359 32.5677 16.9823L37.9209 11.6291C34.5312 8.4461 30.0323 6.69615 25.375 6.75126C18.2856 6.75126 11.8025 10.7472 8.61954 17.0857L14.8477 21.9153C16.329 17.4715 20.4834 14.1713 25.375 14.1713Z" fill="#EA4335"/>
</svg>
