<svg width="130" height="213" viewBox="0 0 130 213" fill="none" xmlns="http://www.w3.org/2000/svg">
<path d="M102.534 136.29L102.335 137.708L102.101 139.377L101.823 141.368L100.656 149.697L100.53 150.593L99.3117 159.316L99.1802 160.24L94.3394 194.798L94.2079 195.735L91.7134 213.561H40.1506L39.4427 208.499L39.3154 207.581L38.9306 204.86L38.8061 203.968L36.6558 188.605L36.5075 187.543L31.6905 153.154L31.5366 152.068L30.6678 145.854L29.3289 136.29H102.534Z" fill="#D03F23"/>
<path d="M45.8407 174.297C44.9187 180.058 41.5246 185.302 36.6558 188.605L36.5089 187.545C42.6019 183.18 46.1723 175.492 44.8376 168.149C43.591 161.29 38.2759 155.595 31.6919 153.155L31.538 152.069C33.5876 152.767 35.5352 153.771 37.3064 155.045C43.5029 159.501 47.0299 166.813 45.8407 174.297Z" fill="#750021"/>
<path d="M100.656 149.697L100.532 150.593C94.3045 149.946 88.4746 151.848 83.326 155.264C78.919 158.189 74.4532 161.779 68.8289 161.786C64.0315 161.792 59.2564 159.287 56.7843 155.27C54.1317 150.965 54.2533 145.432 56.8696 141.152C57.1914 140.624 58.0434 141.108 57.7188 141.636C54.2267 147.346 55.7322 155.012 61.5383 158.695C66.6799 161.957 72.4707 161.011 77.4528 158.009C82.1844 155.155 86.2962 151.615 91.8253 150.257C94.7732 149.534 97.7602 149.366 100.656 149.697Z" fill="#750021"/>
<path d="M102.335 137.708L102.103 139.377C101.6 140.113 101.041 140.807 100.434 141.457C97.5935 144.49 93.6944 146.535 89.4482 147.014C84.634 147.559 79.775 145.997 76.1178 142.99C75.3497 142.36 74.632 141.662 73.9828 140.911C73.5799 140.442 74.2711 139.763 74.6782 140.235C75.54 141.231 76.5179 142.127 77.5798 142.898C80.8201 145.243 84.869 146.463 88.9655 146.11C92.7597 145.778 96.2882 144.097 98.973 141.548C100.098 140.484 101.074 139.267 101.865 137.935C101.977 137.743 102.16 137.682 102.335 137.708Z" fill="#750021"/>
<path d="M99.3118 159.316L99.1803 160.24C97.3182 160.304 95.4811 160.868 93.924 161.976C90.8446 164.167 89.3463 168.138 90.1759 171.744C90.8349 174.618 92.662 177.195 92.711 180.21C92.7502 182.64 91.6058 184.871 89.9759 186.661C85.7395 191.313 79.112 192.252 74.1663 195.898C69.0667 199.66 67.3487 206.855 70.4714 212.363C70.7078 212.781 70.9694 213.182 71.2549 213.561H70.0643C69.8251 213.201 69.6054 212.828 69.4053 212.442C66.6632 207.146 67.8341 200.227 72.3112 196.164C77.6262 191.335 86.2319 190.863 90.3466 184.621C92.753 180.976 91.2196 177.634 89.8485 173.964C88.7671 171.055 88.6258 168.098 89.987 165.24C91.7485 161.54 95.4476 159.443 99.3118 159.316Z" fill="#750021"/>
<path d="M84.7978 204.988C84.7124 208.779 86.9327 211.968 90.1226 213.561H88.2534C85.3965 211.544 83.5806 208.227 83.8366 204.497C84.2171 198.966 88.9264 194.987 94.3394 194.798L94.2079 195.735C89.1908 195.965 84.9125 199.874 84.7978 204.988Z" fill="#750021"/>
<path d="M81.0356 175.717C80.5571 179.881 76.511 182.29 73.3981 184.596C69.3058 187.626 65.3241 190.946 62.3217 195.043C58.4491 200.325 56.3728 207.497 58.3301 213.56H57.3172C55.6089 207.872 57.1073 201.278 60.3923 196.134C62.8743 192.251 66.2488 188.991 69.8626 186.096C71.6338 184.678 73.4862 183.369 75.3022 182.011C77.4637 180.402 79.6827 178.42 80.0339 175.648C80.8104 169.543 72.7083 168.597 68.2746 168.884C63.7487 169.173 59.017 170.671 56.2832 174.399C53.6768 177.951 53.1745 182.507 52.3672 186.678C51.5082 191.106 50.1735 195.592 47.3334 199.234C45.2614 201.887 42.1946 203.971 38.9292 204.857L38.8047 203.965C40.3199 203.586 41.7819 202.917 43.0747 202.012C47.7447 198.733 49.9343 193.273 51.0983 187.984C51.9839 183.963 52.3449 179.755 54.1875 176.001C55.8733 172.554 58.8604 170.178 62.5595 168.967C66.3804 167.718 71.1512 167.345 75.0504 168.416C78.4165 169.345 81.4553 172.073 81.0356 175.717Z" fill="#750021"/>
<path d="M49.4699 213.561H48.4626C48.0695 211.875 47.2398 210.327 45.6757 209.327C43.6526 208.033 41.4785 207.909 39.4414 208.499L39.3141 207.581C41.8954 206.842 44.6361 207.114 46.9935 209.105C48.3912 210.282 49.1159 211.87 49.4699 213.561Z" fill="#750021"/>
<path d="M102.534 136.29L102.335 137.708L102.101 139.377L101.823 141.368L100.432 141.458L98.9731 141.547L77.5799 142.898L76.1179 142.99L30.6678 145.854L29.3289 136.29H102.534Z" fill="#2B2B39"/>
<path d="M109.059 136.705C80.3081 139.078 51.5573 139.078 22.8064 136.705V129.101H109.059V136.705Z" fill="#D03F23"/>
<path d="M89.4218 39.4006C86.7258 42.542 84.7811 54.1493 79.6283 56.0183C76.0817 57.3056 74.2027 52.3264 81.0749 46.0409C85.5016 41.9915 87.4728 37.1496 88.3137 34.2162C87.1021 29.0915 85.5183 23.8295 83.4701 19.042C79.5051 22.6034 73.1464 27.6547 71.3304 25.2405C69.3535 22.6116 75.2702 14.3211 78.579 10.0718C77.0428 7.89827 75.3359 6.00613 73.4388 4.50407C70.3399 2.0437 66.7414 0.632706 62.5638 0.740092C59.5516 0.816214 56.7913 1.87921 54.3037 3.6708C57.842 10.4729 63.0577 21.9687 59.4019 24.6125C56.0106 27.0675 51.0942 17.5495 48.0191 10.447C43.6904 16.9418 40.7803 25.8441 39.5211 34.4295C40.3675 35.9683 41.8352 37.7558 44.3647 39.5216C51.0677 44.2017 59.0284 53.6613 55.0466 55.7628C51.0677 57.867 46.9124 52.3087 43.945 47.3554C42.4214 44.8107 40.7146 42.7567 38.8594 41.4001C38.7964 42.9036 38.7936 44.3703 38.8482 45.7853C39.9017 72.7924 67.0422 72.7842 67.0422 72.7842C67.0422 72.7842 94.2178 66.7012 89.4218 39.4006ZM55.2593 39.9403C52.5689 39.9144 48.2919 35.0358 46.2926 32.3267C44.285 29.6053 45.8925 27.7566 47.819 28.2786C47.8456 28.2868 47.8722 28.2936 47.9001 28.3017C50.6003 29.0901 58.7457 39.9715 55.2593 39.9403ZM78.9371 33.4685C78.9637 33.4603 78.9917 33.4536 79.0183 33.4454C80.942 32.9234 82.5257 34.1726 81.6191 36.561C80.4341 39.6901 78.8546 40.9285 76.4524 39.7567C74.94 39.0186 76.2355 34.2569 78.9371 33.4685Z" fill="#467B6C"/>
<path d="M64.1224 32.6405C66.505 44.4598 65.7355 56.6584 64.8289 68.5906C63.8594 81.3369 62.5512 94.1051 63.0549 106.902C63.3403 114.163 64.2314 121.396 66.0265 128.457C66.179 129.057 67.1345 128.803 66.9806 128.201C60.5379 102.854 66.4714 77.0551 66.6672 51.4386C66.7162 45.0566 66.3413 38.6596 65.0766 32.3863C64.9548 31.7773 64.0007 32.0342 64.1224 32.6405Z" fill="#2B2B39"/>
<path d="M51.9252 72.9089C51.6551 76.991 57.1297 87.4781 54.1022 91.9408C52.0189 95.0129 47.4803 92.0672 49.2151 83.0549C50.3316 77.2479 48.9857 72.2089 47.8833 69.357C43.7938 65.9125 39.3209 62.5713 34.7614 59.8771C33.7205 65.0249 31.6512 72.7471 28.7202 71.8378C25.5289 70.8468 25.2743 60.762 25.368 55.4348C22.8077 54.5594 20.281 54.0103 17.8368 53.8838C13.8411 53.6718 10.0776 54.5961 6.77016 57.0755C4.38474 58.863 2.79967 61.303 1.87768 64.1766C8.86463 67.6429 20.053 73.9379 18.7071 78.1681C17.4591 82.0939 7.71039 77.2248 0.916504 73.2501C1.36281 80.9765 4.41698 89.8325 8.61139 97.4882C10.2287 98.2467 12.498 98.8489 15.6137 98.8258C23.8682 98.7646 36.0387 101.843 34.0982 105.822C32.1619 109.801 25.4324 107.694 20.0306 105.393C17.2562 104.21 14.6316 103.53 12.3091 103.498C13.1696 104.747 14.0579 105.934 14.9631 107.046C32.2067 128.252 54.1203 112.695 54.1203 112.695C54.1203 112.695 72.3684 92.21 51.9252 72.9089ZM24.6629 92.9209C22.4747 94.442 16.06 92.9508 12.8001 91.9096C9.52632 90.8615 9.7026 88.4487 11.576 87.7663C11.6011 87.7568 11.6277 87.7487 11.6557 87.7378C14.3153 86.8271 27.4974 90.9471 24.6629 92.9209ZM39.8568 74.1269C39.8736 74.1051 39.8918 74.0834 39.9086 74.0616C41.1453 72.5378 43.1823 72.6398 43.9001 75.0879C44.8416 78.2932 44.3185 80.199 41.6672 80.6285C39.9981 80.899 38.1542 76.3113 39.8568 74.1269Z" fill="#467B6C"/>
<path d="M27.3493 81.909C33.7249 87.61 40.0431 93.5243 45.1945 100.326C49.1357 105.531 52.1744 111.251 54.9278 117.117C56.8781 121.272 58.7346 125.47 60.6416 129.644C60.899 130.208 61.7524 129.72 61.4964 129.159C58.3653 122.301 55.4468 115.309 51.7841 108.696C48.499 102.762 44.3984 97.378 39.7185 92.4138C36.0264 88.4976 32.0698 84.822 28.0489 81.2279C27.5802 80.8106 26.8793 81.4889 27.3493 81.909Z" fill="#2B2B39"/>
<path d="M75.5276 117.555C75.5276 117.555 97.3293 133.26 114.724 112.17C115.636 111.065 116.533 109.885 117.403 108.64C115.082 108.658 112.452 109.32 109.668 110.483C104.248 112.747 97.5042 114.809 95.5973 110.818C93.6862 106.825 105.879 103.829 114.132 103.948C117.246 103.991 119.521 103.405 121.144 102.658C125.393 95.0306 128.512 86.195 129.013 78.4727C122.191 82.3998 112.407 87.2036 111.187 83.2697C109.872 79.0313 121.105 72.8111 128.116 69.3938C127.215 66.5147 125.648 64.0638 123.275 62.26C119.986 59.7575 116.229 58.8087 112.232 58.9936C109.787 59.1037 107.256 59.6365 104.69 60.4943C104.744 65.8228 104.418 75.9049 101.219 76.8755C98.2807 77.7645 96.2674 70.0286 95.2629 64.874C90.6837 67.5356 86.1885 70.8469 82.0739 74.2642C80.9518 77.1079 79.5681 82.1374 80.644 87.9526C82.3144 96.9771 77.7535 99.8915 75.6927 96.8059C72.6972 92.3228 78.2474 81.8724 78.0068 77.7889C57.4237 96.9473 75.5276 117.555 75.5276 117.555ZM118.167 92.887C118.195 92.8978 118.22 92.906 118.247 92.9155C120.115 93.6101 120.273 96.0256 116.992 97.0505C113.725 98.07 107.299 99.5164 105.122 97.9817C102.303 95.9889 115.514 91.9572 118.167 92.887ZM88.2073 85.5738C85.5575 85.1252 85.0496 83.2167 86.0136 80.0182C86.7495 77.5742 88.7866 77.4872 90.0122 79.0191C90.029 79.0409 90.0472 79.064 90.0639 79.0844C91.7512 81.2797 89.875 85.8552 88.2073 85.5738Z" fill="#467B6C"/>
<path d="M101.819 86.2688C88.6383 99.113 78.1734 114.008 68.0497 129.159C67.7013 129.68 68.5589 130.163 68.9045 129.645C78.982 114.562 89.3981 99.7356 102.52 86.9484C102.969 86.5107 102.269 85.8297 101.819 86.2688Z" fill="#2B2B39"/>
<path d="M109.059 129.101C109.059 129.873 89.7505 130.498 65.9327 130.498C42.115 130.498 22.8064 129.873 22.8064 129.101C22.8064 128.329 42.115 127.704 65.9327 127.704C89.7505 127.704 109.059 128.33 109.059 129.101Z" fill="#2B2B39"/>
</svg>
