<svg width="88" height="240" viewBox="0 0 88 240" fill="none" xmlns="http://www.w3.org/2000/svg">
<path d="M77.6151 203.503H9.79756C9.36511 203.503 9.01514 203.163 9.01514 202.743V198.924C9.01514 198.504 9.36511 198.164 9.79756 198.164H77.6151C78.0475 198.164 78.3975 198.504 78.3975 198.924V202.743C78.3975 203.163 78.0475 203.503 77.6151 203.503Z" fill="#39252B"/>
<path d="M12.0645 139.002H75.4862C76.5406 139.002 77.3955 139.833 77.3955 140.857V148.428C77.3955 149.452 76.5406 150.283 75.4862 150.283H12.0645C11.0101 150.283 10.1553 149.452 10.1553 148.428V140.857C10.1553 139.833 11.0101 139.002 12.0645 139.002Z" fill="#9B7D84"/>
<path d="M79.0194 104.073C79.0194 104.073 78.889 105.833 78.3217 108.567C78.2392 108.977 78.1456 109.403 78.0397 109.854C76.924 114.659 74.5857 121.658 69.8054 127.679C69.8031 127.681 69.8031 127.685 69.8031 127.685C69.5401 128.011 69.2782 128.329 69.0018 128.65C67.2675 130.681 65.2357 132.572 62.855 134.203C62.6176 134.366 62.3757 134.526 62.1283 134.685C58.3221 137.132 53.6677 138.91 47.9756 139.53H47.9734C47.6167 139.569 47.2545 139.605 46.89 139.631H46.8878C45.7643 139.726 44.603 139.773 43.4015 139.773C38.5598 139.773 34.3123 139.002 30.5919 137.685C30.3255 137.594 30.0613 137.497 29.8005 137.398C24.6446 135.43 20.5252 132.407 17.2461 128.968C16.9954 128.707 16.7513 128.443 16.5139 128.176C13.4243 124.753 11.1261 120.978 9.4353 117.448C9.32384 117.215 9.21462 116.982 9.10762 116.752C5.91775 109.848 5.04395 104.073 5.04395 104.073H79.0194Z" fill="#6059C9"/>
<path d="M20.0883 104.074C17.4089 109.218 14.0664 114.238 9.43315 117.449C9.32169 117.216 9.21247 116.983 9.10547 116.753C13.4701 113.689 16.6499 108.944 19.2045 104.074H20.0883Z" fill="#9F9FFB"/>
<path d="M31.0366 104.074C26.555 107.489 22.9305 111.916 20.5007 116.939C18.9905 120.059 17.1771 124.79 17.244 128.968C16.9932 128.707 16.7491 128.443 16.5117 128.177C16.6444 124.609 17.9317 120.826 19.1432 118.013C21.4737 112.599 25.1429 107.808 29.7716 104.074H31.0366Z" fill="#9F9FFB"/>
<path d="M62.8539 134.203C62.6165 134.367 62.3746 134.527 62.1272 134.685C59.9114 123.754 63.2373 112.264 71.086 104.075H72.1939C64.2237 112.054 60.7741 123.362 62.8539 134.203Z" fill="#9F9FFB"/>
<path d="M52.4574 133.523C51.0297 135.572 49.5362 137.575 47.9758 139.531H47.9735C47.6169 139.57 47.2547 139.605 46.8902 139.631C49.1037 136.886 51.1913 134.048 53.1406 131.116C54.2619 129.428 56.2536 126.97 55.5191 124.802C54.5929 122.07 50.7198 123.219 48.7437 123.886C41.3219 126.389 35.6644 131.983 30.5909 137.685C30.3245 137.595 30.0604 137.497 29.7996 137.399C32.09 134.823 34.4606 132.314 37.0732 130.042C40.0134 127.484 43.2735 125.23 46.9247 123.737C49.3723 122.738 53.8439 121.014 55.8301 123.718C58.0469 126.733 54.0925 131.175 52.4574 133.523Z" fill="#9F9FFB"/>
<path d="M78.3217 108.568C78.2392 108.978 78.1456 109.404 78.0397 109.855C72.9907 114.473 70.0204 120.997 69.8053 127.68C69.8031 127.683 69.8031 127.686 69.8031 127.686C69.5401 128.012 69.2782 128.33 69.0017 128.651C68.9527 121.061 72.3376 113.559 78.3217 108.568Z" fill="#9F9FFB"/>
<path d="M62.9854 104.073C61.4696 105.453 59.9171 106.793 58.3299 108.094C54.4847 111.243 50.4466 114.167 46.2414 116.845C44.204 118.141 42.1187 119.567 39.8762 120.512C38.1341 121.244 36.0544 121.59 34.4304 120.411C30.992 117.919 32.8433 112.886 34.3714 109.869C35.4581 107.722 36.8959 105.77 38.6056 104.073H39.7424C37.5423 106.109 35.769 108.565 34.5709 111.305C33.726 113.236 32.869 115.579 33.4842 117.678C34.3636 120.68 37.3885 120.793 39.8862 119.657C43.6924 117.931 47.2657 115.333 50.654 112.948C54.5504 110.205 58.2731 107.236 61.8073 104.072H62.9854V104.073Z" fill="#9F9FFB"/>
<path d="M42.0306 106.126C62.459 106.126 79.0195 105.207 79.0195 104.073C79.0195 102.939 62.459 102.02 42.0306 102.02C21.6022 102.02 5.04175 102.939 5.04175 104.073C5.04175 105.207 21.6022 106.126 42.0306 106.126Z" fill="#2B2B39"/>
<path d="M7.41129 57.6363C6.44385 63.5803 2.31776 65.9518 5.97239 69.0966C9.62703 72.2413 16.6978 76.7829 12.9718 82.6241C9.24474 88.4663 14.1421 90.2888 19.0094 93.9782C22.8658 96.901 23.7474 99.3905 23.0619 104.335H43.1619C43.3636 101.048 42.1242 97.5583 40.0255 94.8034C35.0133 88.2259 33.9199 89.364 34.4638 84.5506C35.0089 79.736 36.1736 78.1723 31.7956 74.2349C27.4176 70.2975 24.8396 67.4343 26.6541 62.035C28.4686 56.6357 25.125 51.3761 19.7851 48.3343C14.4442 45.2935 16.8416 39.1123 13.8724 31.1108C10.9032 23.1093 1.86301 18.5547 1.86301 18.5547C8.59383 28.8595 0.765177 37.6104 1.28233 45.0975C1.79726 52.5857 8.37873 51.6923 7.41129 57.6363Z" fill="#467B6C"/>
<path d="M30.8472 104.335H32.1033L11.241 42.8116C11.1384 42.5106 10.8074 42.346 10.4976 42.4391C10.4942 42.4402 10.4897 42.4412 10.4864 42.4423C10.1754 42.542 10.0049 42.8701 10.1075 43.1733L30.8472 104.335Z" fill="#253F3D"/>
<path d="M63.3543 104.335C62.6488 99.354 63.5114 96.8655 67.3723 93.9395C72.2139 90.2696 77.0857 88.4568 73.3786 82.646C69.6716 76.8352 76.7056 72.3174 80.3402 69.19C83.9758 66.0626 79.8721 63.703 78.9091 57.7904C77.9461 51.8778 84.493 52.7657 85.0068 45.3187C85.5206 37.8705 77.7343 29.1662 84.4295 18.9155C84.4295 18.9155 75.4372 23.4464 72.4836 31.4056C69.5301 39.3649 71.9141 45.5125 66.6021 48.5381C61.2901 51.5637 57.9643 56.7952 59.7688 62.1663C61.5732 67.5364 59.0086 70.3833 54.6541 74.3013C50.2995 78.2181 51.4586 79.7742 52.0003 84.5627C52.542 89.3513 51.4542 88.2197 46.4687 94.7614C44.3611 97.5271 43.1251 101.04 43.3547 104.336H63.3543V104.335Z" fill="#467B6C"/>
<path d="M55.5658 104.336L76.2275 43.4043C76.3301 43.1033 76.1606 42.7763 75.8508 42.6777C75.8474 42.6766 75.843 42.6755 75.8397 42.6745C75.532 42.5813 75.2021 42.7459 75.1007 43.0448L54.3164 104.337H55.5658V104.336Z" fill="#253F3D"/>
<path d="M27.9304 55.7318C30.7703 60.2788 36.7911 67.4249 30.8026 72.4798C24.8141 77.5348 29.4361 81.0672 33.3884 86.5889C37.3406 92.1105 36.4567 95.3581 31.7767 103.479C31.6062 103.773 31.4613 104.059 31.3387 104.336H56.0986C57.0125 101.134 56.7818 97.4915 55.6149 94.2547C52.4941 85.5926 50.9349 86.4589 53.1629 81.4787C55.3909 76.4984 57.1753 75.199 53.8316 69.569C50.4879 63.939 48.7046 60.0406 52.4941 54.8438C56.2836 49.647 54.5003 42.933 49.8192 37.9528C45.138 32.9725 49.8192 27.1249 49.3734 17.5976C48.9275 8.0692 40.8013 0.273438 40.8013 0.273438C44.4883 13.4837 33.112 20.3297 31.1069 28.5154C29.1007 36.702 36.4556 37.8683 33.3873 43.9228C30.32 49.9751 25.0916 51.1836 27.9304 55.7318Z" fill="#467B6C"/>
<path d="M43.9166 104.335L42.5568 29.2776C42.5501 28.9224 42.2514 28.6387 41.8881 28.6387H41.8747C41.5069 28.6452 41.2127 28.9419 41.2194 29.2993L42.5791 104.335H43.9166Z" fill="#253F3D"/>
<path d="M34.4471 150.283L32.5155 156.333L5.63015 240.532H0.375L17.4255 158.051L19.0316 150.283H34.4471Z" fill="#64474B"/>
<path d="M19.0316 150.283H34.4471L32.5155 156.333L17.4255 158.051L19.0316 150.283Z" fill="#39252B"/>
<path d="M87.334 240.532H82.0789L54.3988 153.841L53.262 150.283H68.6752L69.0642 152.169H69.0664L87.334 240.532Z" fill="#64474B"/>
<path d="M69.0642 152.169L54.3988 153.841L53.262 150.283H68.6752L69.0642 152.169Z" fill="#39252B"/>
<path d="M75.6524 191.894H11.7603C10.2445 191.894 9.01514 190.699 9.01514 189.227V189.222C9.01514 187.75 10.2445 186.555 11.7603 186.555H75.6512C77.167 186.555 78.3964 187.75 78.3964 189.222V189.227C78.3975 190.701 77.1682 191.894 75.6524 191.894Z" fill="#9B7D84"/>
</svg>
